<svg xmlns="http://www.w3.org/2000/svg" xmlns:xlink="http://www.w3.org/1999/xlink" viewBox="0 0 859.31 966.55"><defs><style>.cls-1,.cls-4,.cls-5,.cls-7{fill:none;}.cls-2{fill:#949494;}.cls-3{fill:#f2f2f2;}.cls-4,.cls-5,.cls-7{stroke:#000;stroke-linecap:round;stroke-linejoin:round;}.cls-4,.cls-7{stroke-width:2.5px;}.cls-5{stroke-width:9.03px;}.cls-6,.cls-7,.cls-9{fill-rule:evenodd;}.cls-8{fill:url(#New_Pattern);}.cls-9{fill:#fff;}</style><pattern id="New_Pattern" data-name="New Pattern" width="12" height="12" patternTransform="matrix(-1, 0, 0, 1, 16.73, -18.8)" patternUnits="userSpaceOnUse" viewBox="0 0 12 12"><rect class="cls-1" width="12" height="12"/><rect class="cls-1" width="12" height="12"/><circle class="cls-2" cx="12" cy="3" r="2"/><circle class="cls-2" cx="6" r="2"/><circle class="cls-2" cy="3" r="2"/><circle class="cls-2" cx="12" cy="9" r="2"/><circle class="cls-2" cx="6" cy="6" r="2"/><circle class="cls-2" cy="9" r="2"/><circle class="cls-2" cx="6" cy="12" r="2"/></pattern></defs><title>headphones-monochrome</title><g id="Layer_2" data-name="Layer 2"><g id="Layer_1-2" data-name="Layer 1"><path class="cls-3" d="M764.51,205.43C675.44,73.23,519.93-26.56,405.69,6.32,291.44,39.42,218.7,205,147.36,333.19c-17.62,31.77-35.15,61.22-51.65,89.35l11.48,57.35-16.91,3.39L82.62,445C38.69,521,4.63,588.92.47,669.63-5.82,787.37,51.3,931.92,144.33,960.83S366.05,903,497.78,834.7,764,716.73,820,609.48C876.19,502.46,853.57,337.62,764.51,205.43ZM441.93,412.86l-16.61-82.95,16.91-3.39,16.61,83Z"/><path class="cls-4" d="M99,481.53c0,58.43,49.88,72.53,49.88,129.81,0,59.1-24.54,90.26-24.54,128,0,81.69,67.66,152.94,151.46,152.94,80.21,0,144.43-70.23,144.43-155.9,0-74.64-27.77-70.5-8.89-146.28,26.46-106.2,104.41-149.74,229.19-149.74,155.93,0,217.53,138,217.53,243.28,0,164.07-126.71,243.06-209.2,215.54-156-52-107.78-207.61-55.87-250"/><path class="cls-5" d="M56,392l9,45.08"/><path class="cls-6" d="M60,412l15.44-3.1,11.89,59.34-15.45,3.09Z"/><path class="cls-6" d="M146.46,363.46a14,14,0,0,0-21-9.19,82.26,82.26,0,0,0,30.24,151,14,14,0,0,0,15.89-16.58Z"/><path class="cls-5" d="M455.3,312.05l9,45.09"/><path class="cls-6" d="M459.71,330.84l-16,3.21,11.88,59.33,16-3.2Z"/><path class="cls-6" d="M360.78,320.2a13.76,13.76,0,0,1,15.63-16.31A82.26,82.26,0,0,1,406.7,455.15a13.76,13.76,0,0,1-20.7-9Z"/><path class="cls-7" d="M73.67,400.33l16.91-3.39,16.61,82.95-16.91,3.39Z"/><path class="cls-7" d="M442.22,326.52l-16.9,3.39,16.6,82.95,16.92-3.39Z"/><path class="cls-8" d="M53.18,393.86a13.19,13.19,0,0,1-12.91-10.59A216.73,216.73,0,0,1,373,160.36a215.3,215.3,0,0,1,92.33,137.8,13.18,13.18,0,1,1-25.84,5.18A190.37,190.37,0,1,0,66.11,378.1a13.17,13.17,0,0,1-10.33,15.5A13,13,0,0,1,53.18,393.86Z"/><path class="cls-9" d="M700.14,727a13.09,13.09,0,0,1-2.72-.29l-153-32.38c-8.76-1.85-14-12.23-11.71-23.13l73.84-348.88c2-9.51,9.48-16.69,17.36-16.69a13.16,13.16,0,0,1,2.72.29l153,32.38c8.76,1.86,14,12.23,11.71,23.13L717.5,710.32C715.49,719.83,708,727,700.14,727Z"/><path d="M623.9,300.64v10a7.93,7.93,0,0,1,1.68.18l153,32.38c6,1.27,9.56,9.15,7.86,17.21L712.61,709.28c-1.54,7.26-6.9,12.73-12.47,12.73a7.93,7.93,0,0,1-1.68-.18l-153-32.38c-3.53-.75-5.54-3.63-6.42-5.27a17.77,17.77,0,0,1-1.43-11.94l73.83-348.87c1.54-7.25,6.9-12.73,12.47-12.73v-10m0,0c-10.16,0-19.68,8.53-22.25,20.66L527.81,670.17c-2.88,13.62,4.09,26.63,15.57,29.06l153,32.39a18.44,18.44,0,0,0,3.75.39c10.16,0,19.68-8.52,22.25-20.66l73.84-348.87c2.88-13.62-4.09-26.63-15.57-29.06L627.65,301a17.71,17.71,0,0,0-3.75-.4Z"/><path class="cls-6" d="M663.09,316.54l2.72,18,68.82,14.56,10.6-15.23Z"/><path class="cls-5" d="M587.22,684.62l73.38,15.53"/></g></g></svg>